<svg id="visual" viewBox="0 0 900 600" width="900" height="600" xmlns="http://www.w3.org/2000/svg" xmlns:xlink="http://www.w3.org/1999/xlink" version="1.1"><rect x="0" y="0" width="900" height="600" fill="#ffffff"></rect><defs><linearGradient id="grad1_0" x1="33.3%" y1="100%" x2="100%" y2="0%"><stop offset="20%" stop-color="#ffffff" stop-opacity="1"></stop><stop offset="80%" stop-color="#ffffff" stop-opacity="1"></stop></linearGradient></defs><defs><linearGradient id="grad2_0" x1="0%" y1="100%" x2="66.7%" y2="0%"><stop offset="20%" stop-color="#ffffff" stop-opacity="1"></stop><stop offset="80%" stop-color="#ffffff" stop-opacity="1"></stop></linearGradient></defs><g transform="translate(900, 600)"><path d="M-405.6 0C-376 -32.3 -346.4 -64.6 -318.8 -85.4C-291.2 -106.2 -265.6 -115.5 -268.5 -155C-271.4 -194.5 -302.7 -264.3 -286.8 -286.8C-270.9 -309.4 -207.8 -284.7 -172 -297.9C-136.2 -311.1 -127.6 -362.1 -103.5 -386.4C-79.4 -410.6 -39.7 -408.1 0 -405.6L0 0Z" fill="#e1e1e1"></path></g><g transform="translate(0, 0)"><path d="M405.6 0C410 38.5 414.4 77.1 391.8 105C369.2 132.9 319.5 150.1 284.9 164.5C250.3 178.9 230.7 190.5 215.7 215.7C200.7 240.8 190.2 279.6 167.5 290.1C144.8 300.6 109.7 283 79.7 297.5C49.7 312.1 24.9 358.8 0 405.6L0 0Z" fill="#e1e1e1"></path></g></svg>